<?xml version="1.0" encoding="utf-8"?>
<!-- Generator: Adobe Illustrator 22.0.1, SVG Export Plug-In . SVG Version: 6.00 Build 0)  -->
<svg version="1.1" id="Layer_1" xmlns="http://www.w3.org/2000/svg" xmlns:xlink="http://www.w3.org/1999/xlink" x="0px" y="0px"
	 viewBox="0 0 64 64" style="enable-background:new 0 0 64 64;" xml:space="preserve">
<style type="text/css">
	.st0{fill:#FFFFFF;}
</style>
<title>ikoner</title>
<polygon class="st0" points="44.1,15 42.8,15 29.1,15 29.1,17.7 29.1,19.9 40.5,19.9 42.8,19.9 44.1,19.9 "/>
<polygon class="st0" points="29.1,23.4 29.1,28.2 42.8,28.2 44.1,28.2 44.1,23.4 42.8,23.4 "/>
<path class="st0" d="M25.6,31.6c-0.8-0.6-1.6-1.2-2.4-1.7c-3.1-1.9-6.5-3.3-10-4c-8.3,25.1,8.4,32.5,15.1,34.4l-3.4-8.9
	c-0.6-1.5-1.1-3-1.7-4.4l-2.5-6.6l2.5,4.1l2.4,4l6.1,9.9c3.1-10.1,1.5-17.2-1.8-22C28.7,34.5,27.3,32.9,25.6,31.6z"/>
<path class="st0" d="M51.9,41.2c-0.6,0-1.2,0.1-1.8,0.2c-0.8,0.1-1.6,0.2-2.4,0.4c-9.1,2-11.5,7.9-11.9,12.4
	c-0.1,0.8-0.1,1.6-0.1,2.4c0,0.5,0.1,0.9,0.1,1.3l1.4-1.3l2.6-2.4l5.6-5.2l-3.8,5.2l-1.8,2.4l-2.1,2.8c3.1-0.2,6.2-1.2,8.8-2.8H47
	c1.7,0,3.1-1.4,3.1-3.1v-0.6C53.4,47.7,51.9,41.2,51.9,41.2z"/>
<path class="st0" d="M25.6,10.8h22.1v28.5c0.8-0.2,1.6-0.3,2.4-0.4V11.4c0-1.7-1.4-3.1-3.1-3.1h-4V4.9C43,4.4,42.5,4,42,4
	c0,0,0,0,0,0H31.2c-0.5,0-0.9,0.4-0.9,0.9v0v3.4h-4c-1.7,0-3.1,1.4-3.1,3.1c0,0,0,0,0,0v15.3c0.8,0.5,1.7,1.1,2.4,1.7V10.8z"/>
</svg>
