<?xml version="1.0" encoding="utf-8"?>
<!-- Generator: Adobe Illustrator 22.0.1, SVG Export Plug-In . SVG Version: 6.00 Build 0)  -->
<svg version="1.1" id="Layer_1" xmlns="http://www.w3.org/2000/svg" xmlns:xlink="http://www.w3.org/1999/xlink" x="0px" y="0px"
	 viewBox="0 0 64 64" style="enable-background:new 0 0 64 64;" xml:space="preserve">
<style type="text/css">
	.st0{fill:#FFFFFF;}
</style>
<title>ikoner</title>
<path class="st0" d="M19.8,55.4c-3.9,0-13.1-5.2-17-9.8c-1.7-2-2.4-3.8-2.1-5.3c0-0.9,0.5-2.5,9.8-7.7c0.5-0.3,1.2-0.1,1.5,0.4
	c0.3,0.5,0.1,1.2-0.4,1.5l0,0c-6.2,3.5-8.3,5.4-8.6,6c0,0.1,0,0.1,0,0.2c-0.2,0.8,0.3,2,1.6,3.5c4,4.6,13,9.3,15.5,9
	c4.8-0.5,35.3-6.9,39.8-14.6c0.6-0.9,0.7-2,0.2-2.9c-0.1-0.2-0.2-0.4-0.3-0.6c-0.3-0.5-0.2-1.2,0.3-1.6c0.5-0.3,1.2-0.2,1.6,0.3l0,0
	c0.2,0.3,0.4,0.6,0.5,0.9c0.7,1.6,0.6,3.4-0.3,4.9C56.4,48.8,23.6,55,20.2,55.4C20.1,55.4,19.9,55.4,19.8,55.4z"/>
<path class="st0" d="M30.8,47.6c-18.7,0-20.7-9-20.8-9.4c0,0,0-0.1,0-0.1c0-4.8,0.8-9.5,2.6-14c2.6-6.6,8.5-14.7,21.6-15.6
	C44.8,7.6,53.1,12.6,58,22.8c2.1,4.5,3.5,9.4,4,14.3c0,0.4-0.1,0.7-0.4,0.9c-0.4,0.4-10.5,9.1-29.7,9.5H30.8z M12.2,37.8
	c0.2,0.7,2.7,7.6,18.6,7.6h1c16.2-0.3,25.7-7,27.8-8.6c-0.6-4.5-1.8-8.9-3.7-13c-4.5-9.5-11.8-13.9-21.6-13.2
	c-9.6,0.7-16.2,5.4-19.7,14.1C13.1,28.9,12.2,33.3,12.2,37.8z"/>
<path class="st0" d="M16.5,44.4c-0.5,0-0.9-0.3-1.1-0.8c0-0.1,0-0.1-0.1-0.2c0-0.1,0-0.1,0-0.2c-0.1-4.9,0.7-9.7,2.3-14.3
	C21.1,19.2,28.1,13.7,38,13c8.7-0.6,15.6,3.1,20.4,10.9c0.4,0.5,0.3,1.2-0.3,1.6c-0.5,0.4-1.2,0.3-1.6-0.3c0,0-0.1-0.1-0.1-0.1
	C52.2,18,46,14.7,38.1,15.3c-9,0.6-15.2,5.4-18.4,14.3c-1.5,4.3-2.2,8.9-2.2,13.4l0,0c0.2,0.6-0.2,1.2-0.8,1.4
	C16.7,44.4,16.6,44.4,16.5,44.4z"/>
</svg>
